<svg width="118" height="74" viewBox="0 0 118 74" fill="none" xmlns="http://www.w3.org/2000/svg">
<g filter="url(#filter0_di_4_58)">
<path d="M10 65H91.3686C93.036 65 94.5937 64.1688 95.522 62.7837L112.257 37.8139C113.323 36.2235 113.387 34.164 112.423 32.5104L95.4838 3.48015C94.5876 1.94434 92.9433 1 91.1652 1H10C7.23858 1 5 3.23858 5 6V60C5 62.7614 7.23858 65 10 65Z" fill="#D9D9D9"/>
<path d="M10 65H91.3686C93.036 65 94.5937 64.1688 95.522 62.7837L112.257 37.8139C113.323 36.2235 113.387 34.164 112.423 32.5104L95.4838 3.48015C94.5876 1.94434 92.9433 1 91.1652 1H10C7.23858 1 5 3.23858 5 6V60C5 62.7614 7.23858 65 10 65Z" stroke="#818181"/>
</g>
<defs>
<filter id="filter0_di_4_58" x="0.5" y="0.5" width="120.104" height="73" filterUnits="userSpaceOnUse" color-interpolation-filters="sRGB">
<feFlood flood-opacity="0" result="BackgroundImageFix"/>
<feColorMatrix in="SourceAlpha" type="matrix" values="0 0 0 0 0 0 0 0 0 0 0 0 0 0 0 0 0 0 127 0" result="hardAlpha"/>
<feOffset dy="4"/>
<feGaussianBlur stdDeviation="2"/>
<feComposite in2="hardAlpha" operator="out"/>
<feColorMatrix type="matrix" values="0 0 0 0 0 0 0 0 0 0 0 0 0 0 0 0 0 0 0.25 0"/>
<feBlend mode="normal" in2="BackgroundImageFix" result="effect1_dropShadow_4_58"/>
<feBlend mode="normal" in="SourceGraphic" in2="effect1_dropShadow_4_58" result="shape"/>
<feColorMatrix in="SourceAlpha" type="matrix" values="0 0 0 0 0 0 0 0 0 0 0 0 0 0 0 0 0 0 127 0" result="hardAlpha"/>
<feOffset dx="7" dy="7"/>
<feGaussianBlur stdDeviation="3.5"/>
<feComposite in2="hardAlpha" operator="arithmetic" k2="-1" k3="1"/>
<feColorMatrix type="matrix" values="0 0 0 0 0.9375 0 0 0 0 0.9375 0 0 0 0 0.9375 0 0 0 1 0"/>
<feBlend mode="normal" in2="shape" result="effect2_innerShadow_4_58"/>
</filter>
</defs>
</svg>
