<svg width="174" height="208" viewBox="0 0 174 208" fill="none" xmlns="http://www.w3.org/2000/svg">
<rect x="3.5" y="3.5" width="32" height="201" fill="#929292" stroke="black" stroke-width="7"/>
<g filter="url(#filter0_iii_2_82)">
<path d="M39 12.5V194C53 194 87 152.801 87 98C87 44.5 59 12.5 39 12.5Z" fill="#6B2424"/>
</g>
<path d="M36 194V197H39C41.4406 197 44.0099 196.12 46.5147 194.759C49.0534 193.379 51.7269 191.395 54.4316 188.92C59.8431 183.967 65.5814 176.863 70.8251 168.09C81.3159 150.537 90 126.011 90 98C90 70.7354 82.8658 48.7818 73.019 33.5582C63.2832 18.5061 50.4888 9.5 39 9.5H36V12.5V194Z" stroke="black" stroke-width="6"/>
<g filter="url(#filter1_i_2_82)">
<path d="M0 0V118.5C14.3333 115.833 44.5 105.6 50.5 86C58 61.5 102.5 59 134 55.5C159.2 52.7 174 36 174 20V0H0Z" fill="#616161"/>
</g>
<path d="M26.7366 105.507C18.8013 109.711 10.1558 112.566 3.5 114.17V3.5H170.5V20C170.5 33.7406 157.558 49.3609 133.613 52.0214C131.026 52.3089 128.334 52.5909 125.567 52.8806C111.698 54.3331 95.9763 55.9796 82.3762 59.4858C66.304 63.6294 51.4998 70.7771 47.1533 84.9755C44.5696 93.4155 36.5713 100.297 26.7366 105.507Z" stroke="black" stroke-width="7"/>
<defs>
<filter id="filter0_iii_2_82" x="32.7" y="6.2" width="60.3" height="197.8" filterUnits="userSpaceOnUse" color-interpolation-filters="sRGB">
<feFlood flood-opacity="0" result="BackgroundImageFix"/>
<feBlend mode="normal" in="SourceGraphic" in2="BackgroundImageFix" result="shape"/>
<feColorMatrix in="SourceAlpha" type="matrix" values="0 0 0 0 0 0 0 0 0 0 0 0 0 0 0 0 0 0 127 0" result="hardAlpha"/>
<feOffset dx="-13" dy="-23"/>
<feGaussianBlur stdDeviation="0.15"/>
<feComposite in2="hardAlpha" operator="arithmetic" k2="-1" k3="1"/>
<feColorMatrix type="matrix" values="0 0 0 0 1 0 0 0 0 1 0 0 0 0 1 0 0 0 1 0"/>
<feBlend mode="normal" in2="shape" result="effect1_innerShadow_2_82"/>
<feColorMatrix in="SourceAlpha" type="matrix" values="0 0 0 0 0 0 0 0 0 0 0 0 0 0 0 0 0 0 127 0" result="hardAlpha"/>
<feOffset dx="-12" dy="-10"/>
<feComposite in2="hardAlpha" operator="arithmetic" k2="-1" k3="1"/>
<feColorMatrix type="matrix" values="0 0 0 0 0.419608 0 0 0 0 0.141176 0 0 0 0 0.141176 0 0 0 1 0"/>
<feBlend mode="normal" in2="effect1_innerShadow_2_82" result="effect2_innerShadow_2_82"/>
<feColorMatrix in="SourceAlpha" type="matrix" values="0 0 0 0 0 0 0 0 0 0 0 0 0 0 0 0 0 0 127 0" result="hardAlpha"/>
<feOffset dy="84"/>
<feGaussianBlur stdDeviation="2"/>
<feComposite in2="hardAlpha" operator="arithmetic" k2="-1" k3="1"/>
<feColorMatrix type="matrix" values="0 0 0 0 0 0 0 0 0 0 0 0 0 0 0 0 0 0 0.25 0"/>
<feBlend mode="normal" in2="effect2_innerShadow_2_82" result="effect3_innerShadow_2_82"/>
</filter>
<filter id="filter1_i_2_82" x="0" y="0" width="174" height="122.5" filterUnits="userSpaceOnUse" color-interpolation-filters="sRGB">
<feFlood flood-opacity="0" result="BackgroundImageFix"/>
<feBlend mode="normal" in="SourceGraphic" in2="BackgroundImageFix" result="shape"/>
<feColorMatrix in="SourceAlpha" type="matrix" values="0 0 0 0 0 0 0 0 0 0 0 0 0 0 0 0 0 0 127 0" result="hardAlpha"/>
<feOffset dy="18"/>
<feGaussianBlur stdDeviation="2"/>
<feComposite in2="hardAlpha" operator="arithmetic" k2="-1" k3="1"/>
<feColorMatrix type="matrix" values="0 0 0 0 0 0 0 0 0 0 0 0 0 0 0 0 0 0 0.9 0"/>
<feBlend mode="normal" in2="shape" result="effect1_innerShadow_2_82"/>
</filter>
</defs>
</svg>
